HIERARCHY
ROOT Hips
{
	OFFSET 0.00000 0.00000 0.00000
	CHANNELS 6 Xposition Yposition Zposition Zrotation Yrotation Xrotation 
	JOINT LHipJoint
	{
		OFFSET 0 0 0
		CHANNELS 3 Zrotation Yrotation Xrotation
		JOINT LeftUpLeg
		{
			OFFSET 1.86795 -1.59681 0.65681
			CHANNELS 3 Zrotation Yrotation Xrotation
			JOINT LeftLeg
			{
				OFFSET 2.30491 -6.33268 0.00000
				CHANNELS 3 Zrotation Yrotation Xrotation
				JOINT LeftFoot
				{
					OFFSET 2.46780 -6.78022 0.00000
					CHANNELS 3 Zrotation Yrotation Xrotation
					JOINT LeftToeBase
					{
						OFFSET 0.07897 -0.21698 1.59652
						CHANNELS 3 Zrotation Yrotation Xrotation
						End Site
						{
							OFFSET 0.00000 -0.00000 0.82310
						}
					}
				}
			}
		}
	}
	JOINT RHipJoint
	{
		OFFSET 0 0 0
		CHANNELS 3 Zrotation Yrotation Xrotation
		JOINT RightUpLeg
		{
			OFFSET -1.93650 -1.59681 0.65681
			CHANNELS 3 Zrotation Yrotation Xrotation
			JOINT RightLeg
			{
				OFFSET -2.29410 -6.30299 0.00000
				CHANNELS 3 Zrotation Yrotation Xrotation
				JOINT RightFoot
				{
					OFFSET -2.48738 -6.83403 0.00000
					CHANNELS 3 Zrotation Yrotation Xrotation
					JOINT RightToeBase
					{
						OFFSET -0.08699 -0.23899 1.89395
						CHANNELS 3 Zrotation Yrotation Xrotation
						End Site
						{
							OFFSET -0.00000 -0.00000 0.96904
						}
					}
				}
			}
		}
	}
	JOINT LowerBack
	{
		OFFSET 0 0 0
		CHANNELS 3 Zrotation Yrotation Xrotation
		JOINT Spine
		{
			OFFSET 0.03629 1.99740 -0.07548
			CHANNELS 3 Zrotation Yrotation Xrotation
			JOINT Spine1
			{
				OFFSET 0.03970 1.94298 0.17218
				CHANNELS 3 Zrotation Yrotation Xrotation
				JOINT Neck
				{
					OFFSET 0 0 0
					CHANNELS 3 Zrotation Yrotation Xrotation
					JOINT Neck1
					{
						OFFSET -0.05054 1.79469 0.04241
						CHANNELS 3 Zrotation Yrotation Xrotation
						JOINT Head
						{
							OFFSET 0.05195 1.78475 -0.22133
							CHANNELS 3 Zrotation Yrotation Xrotation
							End Site
							{
								OFFSET 0.02420 1.80711 -0.07950
							}
						}
					}
				}
				JOINT LeftShoulder
				{
					OFFSET 0 0 0
					CHANNELS 3 Zrotation Yrotation Xrotation
					JOINT LeftArm
					{
						OFFSET 2.92134 1.19850 0.36056
						CHANNELS 3 Zrotation Yrotation Xrotation
						JOINT LeftForeArm
						{
							OFFSET 4.84137 -0.00000 0.00000
							CHANNELS 3 Zrotation Yrotation Xrotation
							JOINT LeftHand
							{
								OFFSET 3.24520 -0.00000 -0.00000
								CHANNELS 3 Zrotation Yrotation Xrotation
								JOINT LeftFingerBase
								{
									OFFSET 0 0 0
									CHANNELS 3 Zrotation Yrotation Xrotation
									JOINT LeftHandIndex1
									{
										OFFSET 0.52122 -0.00000 0.00000
										CHANNELS 3 Zrotation Yrotation Xrotation
										End Site
										{
											OFFSET 0.42022 -0.00000 0.00000
										}
									}
								}
								JOINT LThumb
								{
									OFFSET 0 0 0
									CHANNELS 3 Zrotation Yrotation Xrotation
									End Site
									{
										OFFSET 0.42664 -0.00000 0.42664
									}
								}
							}
						}
					}
				}
				JOINT RightShoulder
				{
					OFFSET 0 0 0
					CHANNELS 3 Zrotation Yrotation Xrotation
					JOINT RightArm
					{
						OFFSET -2.84327 1.20795 0.50191
						CHANNELS 3 Zrotation Yrotation Xrotation
						JOINT RightForeArm
						{
							OFFSET -4.72284 -0.00000 0.00000
							CHANNELS 3 Zrotation Yrotation Xrotation
							JOINT RightHand
							{
								OFFSET -3.23459 -0.00000 0.00000
								CHANNELS 3 Zrotation Yrotation Xrotation
								JOINT RightFingerBase
								{
									OFFSET 0 0 0
									CHANNELS 3 Zrotation Yrotation Xrotation
									JOINT RightHandIndex1
									{
										OFFSET -0.30742 -0.00000 0.00000
										CHANNELS 3 Zrotation Yrotation Xrotation
										End Site
										{
											OFFSET -0.24785 -0.00000 0.00000
										}
									}
								}
								JOINT RThumb
								{
									OFFSET 0 0 0
									CHANNELS 3 Zrotation Yrotation Xrotation
									End Site
									{
										OFFSET -0.25163 -0.00000 0.25163
									}
								}
							}
						}
					}
				}
			}
		}
	}
}
MOTION
Frames: 11
Frame Time: 0.0266667
0.00 0.00 0.00 158.0600 -80.8310 -141.5860 0.0000 0.0000 0.0000 -12.7782 -16.6971 -46.9234 4.1545 12.3632 37.0291 0.1083 0.4905 6.0582 0.0413 1.3119 3.6074 0.0000 0.0000 0.0000 28.7325 8.9420 -27.6896 -5.0748 -13.4675 41.1448 0.0951 -6.5642 1.4849 -3.6345 11.6574 -34.5306 0.2476 0.4835 7.3631 -1.4725 0.5858 -0.3264 -1.7304 0.2617 -4.4522 -9.5629 -2.8714 -6.5604 14.2971 -2.9158 -9.8424 5.9243 -1.5593 -1.3987 -0.0000 0.0000 0.0000 -78.8174 -4.2852 42.2929 120.7515 -56.1063 -86.2834 -0.0000 -0.0000 49.4475 -25.9831 46.6743 -19.5216 -7.1250 0.0000 -0.0000 -76.7465 60.7963 -42.2386 -0.0000 0.0000 0.0000 73.8642 15.6242 20.9812 -135.6813 50.4303 -98.2877 0.0000 0.0000 12.4927 7.8645 15.0544 2.0547 7.1250 -0.0000 -0.0000 23.4475 -15.4880 17.9252
0.00 0.00 0.00 169.8250 -41.6033 -158.1020 0.0000 0.0000 0.0000 -19.3320 -1.4402 -32.6398 9.7913 17.2908 58.7887 1.4558 16.0607 22.8271 5.3759 13.7950 42.4222 0.0000 0.0000 0.0000 22.0681 11.8037 -41.4124 -3.8208 -11.9181 35.4429 -0.1522 -11.9081 10.3381 -0.7713 5.6080 -15.6511 -3.5382 -0.7092 5.5052 -3.2671 -1.4384 -1.1696 -1.2632 -0.7112 -4.3048 -9.5470 -2.4744 -5.4794 14.8859 -2.7175 -7.9273 6.0904 -1.5226 -1.0299 0.0000 0.0000 0.0000 -78.6557 -5.9642 45.2184 101.2340 -59.5177 -69.7132 -0.0000 -0.0000 50.7259 -24.8841 47.4474 -18.8651 -7.1250 0.0000 -0.0000 -77.2005 61.4118 -43.6520 0.0000 0.0000 0.0000 76.3715 10.9462 21.6425 -136.5517 49.9853 -98.9565 0.0000 0.0000 12.0701 6.5003 13.4842 1.5219 7.1250 -0.0000 -0.0000 22.8090 -16.9527 16.5423
0.00 0.00 0.00 173.3710 -39.5457 -162.9150 0.0000 0.0000 0.0000 -13.4186 -3.9127 -41.6775 14.4278 19.2387 73.5068 0.0838 12.2003 9.6613 4.0033 12.1648 36.3175 0.0000 0.0000 0.0000 26.4139 10.5604 -36.9832 -5.0818 -13.4753 41.1748 0.3907 -11.2189 -6.5028 -0.0710 -1.7194 4.7307 0.1917 -0.7680 7.7899 -1.4789 -1.1014 -0.7149 -1.5113 -0.5794 -5.1496 -9.7451 -2.7769 -6.5359 14.7221 -3.0659 -8.8720 6.0697 -1.7103 -1.0906 -0.0000 -0.0000 0.0000 -80.9316 -6.6123 44.7589 105.6124 -59.0587 -73.4779 -0.0000 -0.0000 51.2608 -23.5360 46.3309 -17.4875 -7.1250 0.0000 -0.0000 -74.4451 61.3422 -41.0045 -0.0000 -0.0000 0.0000 71.5854 15.6930 18.6087 -136.6061 49.9570 -98.9981 0.0000 0.0000 12.1248 7.7561 13.0848 1.7662 7.1250 -0.0000 -0.0000 23.6561 -17.3109 17.0744
0.00 0.00 0.00 174.1140 -33.5043 -162.4070 0.0000 0.0000 0.0000 -11.0990 -11.6619 -48.3060 9.5627 17.1565 58.0166 0.0014 1.3679 1.1189 0.2748 3.3721 9.3164 0.0000 0.0000 0.0000 26.7615 12.4641 -32.9904 -5.7320 -14.1635 43.8965 0.0920 -9.8678 -12.4020 -0.3241 -3.6589 10.1191 1.2893 -0.2937 8.0195 -0.4430 -0.2931 -0.8954 -1.1494 -0.1924 -5.4444 -9.5690 -2.5399 -6.2410 14.1456 -2.7756 -12.7701 5.9611 -1.7654 -2.3377 0.0000 -0.0000 0.0000 -81.8302 -7.9753 47.0525 106.2191 -58.9823 -73.9981 -0.0000 -0.0000 52.5812 -19.7251 46.0643 -14.4773 -7.1250 0.0000 -0.0000 -71.2106 62.3062 -39.6440 0.0000 -0.0000 0.0000 71.5478 18.1247 15.7330 -137.8161 49.3119 -99.9201 0.0000 0.0000 11.9732 5.2581 12.2742 1.1208 7.1250 -0.0000 -0.0000 22.1814 -18.0816 15.4015
0.00 0.00 0.00 177.2340 -9.0162 -163.0680 0.0000 0.0000 0.0000 -7.3419 -22.2781 -30.8967 2.6111 10.0371 29.0970 -0.2631 10.4690 1.7825 0.4569 -4.3363 -12.0249 0.0000 0.0000 0.0000 23.6779 8.6745 -36.0189 -9.1363 -16.8946 56.5604 -0.1605 6.6593 12.7413 -0.0904 1.9395 -5.3384 0.3959 0.2508 5.2808 -0.8513 0.3207 -0.3081 -1.1247 0.1410 -3.2717 -10.1090 -1.6550 -7.7488 16.9632 -1.7548 -9.3851 6.8870 -1.2418 -1.1493 0.0000 0.0000 0.0000 -80.4113 -6.1093 45.3389 107.7347 -58.7776 -75.2956 -0.0000 -0.0000 52.3009 -20.0866 45.5506 -14.6306 -7.1250 0.0000 -0.0000 -70.6479 61.9709 -38.6568 0.0000 0.0000 0.0000 76.8937 17.4854 21.1935 -136.1630 50.1858 -98.6584 0.0000 0.0000 10.8983 6.1396 12.5086 1.3346 7.1250 -0.0000 -0.0000 22.7146 -17.8597 15.9623
0.00 0.00 0.00 1.0765 1.0113 -345.6590 0.0000 0.0000 0.0000 -0.0256 -23.7928 -29.4534 1.5673 7.8998 22.4101 0.0305 12.9571 -18.7955 0.8266 -5.8004 -16.2065 0.0000 0.0000 0.0000 15.6500 18.0488 -38.8605 -3.7237 -11.7833 34.9697 0.8506 -16.1704 -7.9749 -0.4251 4.1847 -11.5968 -1.4842 -1.2826 11.3602 -1.7102 -2.0045 0.2124 -0.6292 -0.9630 -6.1660 -10.2950 -0.6408 -4.3599 13.6741 0.9284 -16.6802 6.0278 0.4233 -4.2547 -0.0000 -0.0000 0.0000 -88.7994 -14.6748 49.7442 109.5097 -58.5118 -76.8115 -0.0000 -0.0000 49.9820 -25.2825 45.0974 -18.4977 -7.1250 0.0000 -0.0000 -73.8062 60.3296 -38.8130 -0.0000 -0.0000 0.0000 56.4361 50.9851 36.1946 -134.9449 50.7954 -97.7186 0.0000 0.0000 14.5675 -4.1620 24.6323 -1.7372 7.1250 -0.0000 -0.0000 15.4219 -6.0168 14.2594
0.00 0.00 0.00 -1.3726 -4.0960 -344.4760 0.0000 0.0000 0.0000 -3.7640 -23.4510 -28.5785 2.0355 8.9396 25.6065 0.0253 10.0487 -14.7166 1.0661 -6.5643 -18.4307 0.0000 0.0000 0.0000 11.3719 25.0855 -30.1794 -2.0941 -9.0594 25.9814 1.4541 -20.7746 -6.9435 -0.3620 3.8652 -10.6978 -4.4426 -1.6590 9.8235 -3.6335 -2.8119 1.7167 -0.9228 -1.3552 -3.6891 -10.4643 0.6501 4.2108 28.4778 4.1687 -15.6723 11.3333 0.7759 -6.1085 0.0000 -0.0000 0.0000 -85.7648 -12.4757 50.2717 109.2248 -58.5564 -76.5684 -0.0000 -0.0000 49.4676 -24.8512 47.0248 -18.7196 -7.1250 0.0000 -0.0000 -76.4971 61.2549 -42.7436 0.0000 -0.0000 0.0000 28.8346 16.3880 -23.0331 -125.5126 54.6525 -90.2025 0.0000 0.0000 22.9248 21.5483 4.4503 1.7550 7.1250 -0.0000 -0.0000 33.8622 -24.2857 20.6997
0.00 0.00 0.00 -2.4938 -5.0954 -343.0560 0.0000 0.0000 0.0000 -2.9321 -23.5184 -28.6663 2.1795 9.2304 26.5186 0.1357 10.2617 -16.5880 0.7501 -5.5321 -15.4326 0.0000 0.0000 0.0000 12.1331 26.0927 -28.6628 -1.7286 -8.2764 23.5567 1.5320 -21.3037 -6.8468 -0.5075 4.5664 -12.6759 -7.7670 -2.3022 9.2614 -4.4629 -3.9766 1.6702 0.1663 -1.9045 -3.2416 -9.2738 -0.7596 5.0137 34.4733 2.4550 -13.6742 13.6492 -0.4522 -5.3800 0.0000 0.0000 0.0000 -82.5216 -10.3865 47.7149 108.4697 -58.6710 -75.9238 -0.0000 -0.0000 50.0364 -24.7794 46.3689 -18.4758 -7.1250 0.0000 -0.0000 -75.4045 61.0090 -41.3440 0.0000 0.0000 0.0000 63.9721 -15.8690 -5.5185 -145.0421 44.7821 -105.2163 0.0000 0.0000 14.2773 22.5981 4.0891 1.7000 7.1250 -0.0000 -0.0000 34.5570 -24.4819 21.1374
0.00 0.00 0.00 -1.6405 0.1965 -341.7840 0.0000 0.0000 0.0000 -0.5905 -28.9911 -23.6456 1.2803 7.1705 20.2216 -0.1314 13.0864 -16.8881 0.8516 -5.8856 -16.4529 0.0000 0.0000 0.0000 15.0203 22.8706 -29.1245 -2.2072 -9.2849 26.6907 1.7078 -22.4876 -11.0851 -0.1619 2.5921 -7.1450 -3.5013 -2.2347 7.8349 -0.7172 -3.3412 -0.6036 1.6116 -1.5678 -4.8653 -5.7326 5.5026 0.0008 16.7348 7.9376 -2.9992 5.8286 3.8191 -1.7926 0.0000 0.0000 0.0000 -64.7306 -54.1237 47.4324 124.8124 -54.8849 -89.6306 -0.0000 -0.0000 60.7232 -9.3657 47.7344 -6.9589 -7.1250 0.0000 -0.0000 -66.4292 66.1610 -40.9955 0.0000 0.0000 0.0000 61.0927 -13.9343 -5.1173 -141.8683 46.9232 -102.9383 0.0000 0.0000 15.4467 14.4177 8.1165 2.0788 7.1250 -0.0000 -0.0000 28.7075 -21.6120 18.5364
0.00 0.00 0.00 -0.8326 -1.1097 -341.5850 0.0000 0.0000 0.0000 -1.9335 -28.8439 -22.0769 1.0742 6.5884 18.5015 -0.2945 14.3479 -16.6498 0.8899 -6.0129 -16.8219 0.0000 0.0000 0.0000 13.8703 23.4897 -29.4620 -2.3015 -9.4677 27.2697 1.6860 -22.3537 -11.0149 -0.2498 3.2157 -8.8799 -1.7764 -2.2117 7.2024 0.9550 -3.0592 -0.8583 2.3281 -1.4534 -4.7841 -2.7864 9.3480 -1.8636 4.8993 12.5306 0.1152 1.9825 6.2867 -0.1643 -0.0000 -0.0000 0.0000 -44.4795 -48.8404 9.8785 109.3817 -58.5319 -76.7023 -0.0000 -0.0000 64.4637 -26.0091 49.4259 -20.3355 -7.1250 0.0000 -0.0000 -81.2265 61.8038 -48.1919 -0.0000 -0.0000 0.0000 60.9978 -13.2706 -5.0517 -142.9445 46.2253 -103.7199 0.0000 0.0000 14.5599 14.1074 7.6591 1.9184 7.1250 -0.0000 -0.0000 28.6169 -22.0434 18.1261
0.00 0.00 0.00 0.9029 -6.6179 -340.2440 0.0000 0.0000 0.0000 -5.0021 -27.7583 -19.9062 0.7780 5.6315 15.7189 -0.5383 17.3228 -18.7871 0.3143 -3.6038 -9.9645 0.0000 0.0000 0.0000 9.9698 26.9132 -30.7498 -2.3035 -9.4715 27.2816 1.5732 -21.5931 -9.9905 -0.3926 4.0234 -11.1426 1.7383 -1.4205 7.0658 2.0494 -1.6561 -0.3642 1.3240 -0.8368 -4.3304 3.4625 15.1086 -3.1597 -14.7328 20.2723 -2.1285 -4.1116 10.0791 1.7668 0.0000 -0.0000 0.0000 -46.1141 -7.0372 2.7393 102.1470 -59.4351 -70.4996 -0.0000 -0.0000 61.7721 -38.8705 48.2140 -31.0067 -7.1250 0.0000 -0.0000 -87.8299 57.7740 -48.4045 0.0000 -0.0000 0.0000 62.0246 -13.9401 -5.9042 -140.8727 47.5443 -102.2073 0.0000 0.0000 14.4188 16.0742 7.9189 2.2734 7.1250 -0.0000 -0.0000 29.7592 -21.6835 19.3922
